<svg width="664" height="540" fill="none" xmlns="http://www.w3.org/2000/svg"><path d="M233.016 135.797C335.559 33.357 423.222-1.673 492.785.604c69.555 2.278 121.136 41.861 151.519 88.922 30.304 46.938 22.469 112.34-14.931 180.237-37.389 67.878-104.268 138.127-191.79 194.633-87.476 56.477-187.424 75.371-268.91 74.934-40.742-.218-76.854-5.269-104.468-12.862-13.807-3.796-25.48-8.225-34.54-12.996-9.072-4.777-15.478-9.873-18.813-14.979-12.107-18.539-13.106-41.323-5.536-67.422 7.572-26.105 23.702-55.466 45.762-87.078 44.12-63.221 111.862-135.318 181.94-208.195l-.002-.001z" stroke="#000"/></svg>